# WaveFront *.obj file (generated by Autodesk ATF)

mtllib lilypad.mtl

g Body1

v 0.000000 0.000000 0.000000
v 0.000000 5.000000 0.000000
v 0.000000 5.000000 0.500000
v 0.000000 0.000000 0.500000
v 2.413236 4.379074 0.000000
v 2.413236 4.379074 0.500000
v -0.738254 4.945198 0.000000
v -1.460324 4.781993 0.000000
v -2.150384 4.513962 0.000000
v -2.793304 4.146981 0.000000
v -3.374993 3.689095 0.000000
v -3.882700 3.150340 0.000000
v -4.305294 2.542528 0.000000
v -4.633512 1.878981 0.000000
v -4.860159 1.174245 0.000000
v -4.980268 0.443768 0.000000
v -4.991205 -0.296436 0.000000
v -4.892730 -1.030142 0.000000
v -4.687002 -1.741267 0.000000
v -4.378531 -2.414221 0.000000
v -3.974079 -3.034254 0.000000
v -3.482511 -3.587773 0.000000
v -2.914604 -4.062645 0.000000
v -2.282806 -4.448460 0.000000
v -1.600967 -4.736761 0.000000
v -0.884034 -4.921228 0.000000
v -0.147721 -4.997817 0.000000
v 0.591830 -4.964850 0.000000
v 1.318407 -4.823049 0.000000
v 2.016083 -4.575523 0.000000
v 2.669566 -4.227697 0.000000
v 3.264529 -3.787196 0.000000
v 3.787930 -3.263676 0.000000
v 4.228297 -2.668614 0.000000
v 4.575976 -2.015054 0.000000
v 4.823346 -1.317322 0.000000
v 4.964983 -0.590712 0.000000
v 4.997784 0.148846 0.000000
v 4.921029 0.885141 0.000000
v 4.736401 1.602033 0.000000
v 4.447946 2.283807 0.000000
v 4.061989 2.915518 0.000000
v 3.586989 3.483319 0.000000
v 3.033360 3.974762 0.000000
v 3.033360 3.974762 0.500000
v 3.586989 3.483319 0.500000
v 4.061989 2.915518 0.500000
v 4.447946 2.283807 0.500000
v 4.736401 1.602033 0.500000
v 4.921029 0.885141 0.500000
v 4.997784 0.148846 0.500000
v 4.964983 -0.590712 0.500000
v 4.823346 -1.317322 0.500000
v 4.575976 -2.015054 0.500000
v 4.228297 -2.668614 0.500000
v 3.787930 -3.263676 0.500000
v 3.264529 -3.787196 0.500000
v 2.669566 -4.227697 0.500000
v 2.016083 -4.575523 0.500000
v 1.318407 -4.823049 0.500000
v 0.591830 -4.964850 0.500000
v -0.147721 -4.997817 0.500000
v -0.884034 -4.921228 0.500000
v -1.600967 -4.736761 0.500000
v -2.282806 -4.448460 0.500000
v -2.914604 -4.062645 0.500000
v -3.482511 -3.587773 0.500000
v -3.974079 -3.034254 0.500000
v -4.378531 -2.414221 0.500000
v -4.687002 -1.741267 0.500000
v -4.892730 -1.030142 0.500000
v -4.991205 -0.296436 0.500000
v -4.980268 0.443768 0.500000
v -4.860159 1.174245 0.500000
v -4.633512 1.878981 0.500000
v -4.305294 2.542528 0.500000
v -3.882700 3.150340 0.500000
v -3.374993 3.689095 0.500000
v -2.793304 4.146981 0.500000
v -2.150384 4.513962 0.500000
v -1.460324 4.781993 0.500000
v -0.738254 4.945198 0.500000
vt 0.000000 0.000000 0.000000
vt 5.000000 0.000000 0.000000
vt 0.000000 0.500000 0.000000
vt 5.000000 0.500000 0.000000
vt -0.000000 0.000000 0.000000
vt 5.000000 0.000000 0.000000
vt -0.000000 0.500000 0.000000
vt 5.000000 0.500000 0.000000
vt -0.500000 7.853982 0.000000
vt -0.000000 7.853982 0.000000
vt -0.500000 8.594945 0.000000
vt -0.000000 8.594945 0.000000
vt -0.500000 9.335907 0.000000
vt -0.000000 9.335907 0.000000
vt -0.500000 10.076870 0.000000
vt -0.000000 10.076870 0.000000
vt -0.500000 10.817833 0.000000
vt -0.000000 10.817833 0.000000
vt -0.500000 11.558796 0.000000
vt -0.000000 11.558796 0.000000
vt -0.500000 12.299759 0.000000
vt -0.000000 12.299759 0.000000
vt -0.500000 13.040722 0.000000
vt -0.000000 13.040722 0.000000
vt -0.500000 13.781685 0.000000
vt -0.000000 13.781685 0.000000
vt -0.500000 14.522648 0.000000
vt -0.000000 14.522648 0.000000
vt -0.500000 15.263611 0.000000
vt -0.000000 15.263611 0.000000
vt -0.500000 16.004573 0.000000
vt -0.000000 16.004573 0.000000
vt -0.500000 16.745536 0.000000
vt -0.000000 16.745536 0.000000
vt -0.500000 17.486499 0.000000
vt -0.000000 17.486499 0.000000
vt -0.500000 18.227462 0.000000
vt -0.000000 18.227462 0.000000
vt -0.500000 18.968425 0.000000
vt -0.000000 18.968425 0.000000
vt -0.500000 19.709388 0.000000
vt -0.000000 19.709388 0.000000
vt -0.500000 20.450351 0.000000
vt -0.000000 20.450351 0.000000
vt -0.500000 21.191314 0.000000
vt -0.000000 21.191314 0.000000
vt -0.500000 21.932277 0.000000
vt -0.000000 21.932277 0.000000
vt -0.500000 22.673239 0.000000
vt -0.000000 22.673239 0.000000
vt -0.500000 23.414202 0.000000
vt -0.000000 23.414202 0.000000
vt -0.500000 24.155165 0.000000
vt -0.000000 24.155165 0.000000
vt -0.500000 24.896128 0.000000
vt -0.000000 24.896128 0.000000
vt -0.500000 25.637091 0.000000
vt -0.000000 25.637091 0.000000
vt -0.500000 26.378054 0.000000
vt -0.000000 26.378054 0.000000
vt -0.500000 27.119017 0.000000
vt -0.000000 27.119017 0.000000
vt -0.500000 27.859980 0.000000
vt -0.000000 27.859980 0.000000
vt -0.500000 28.600943 0.000000
vt -0.000000 28.600943 0.000000
vt -0.500000 29.341905 0.000000
vt -0.000000 29.341905 0.000000
vt -0.500000 30.082868 0.000000
vt -0.000000 30.082868 0.000000
vt -0.500000 30.823831 0.000000
vt -0.000000 30.823831 0.000000
vt -0.500000 31.564794 0.000000
vt -0.000000 31.564794 0.000000
vt -0.500000 32.305757 0.000000
vt -0.000000 32.305757 0.000000
vt -0.500000 33.046720 0.000000
vt -0.000000 33.046720 0.000000
vt -0.500000 33.787683 0.000000
vt -0.000000 33.787683 0.000000
vt -0.500000 34.528646 0.000000
vt -0.000000 34.528646 0.000000
vt -0.500000 35.269609 0.000000
vt -0.000000 35.269609 0.000000
vt -0.500000 36.010571 0.000000
vt -0.000000 36.010571 0.000000
vt -0.500000 36.751534 0.000000
vt -0.000000 36.751534 0.000000
vt 0.000000 5.000000 0.000000
vt -0.738254 4.945198 0.000000
vt 0.000000 0.000000 0.000000
vt -1.460324 4.781993 0.000000
vt -2.150384 4.513962 0.000000
vt -2.793304 4.146981 0.000000
vt -3.374993 3.689095 0.000000
vt -3.882700 3.150340 0.000000
vt -4.305294 2.542528 0.000000
vt -4.633512 1.878981 0.000000
vt -4.860159 1.174245 0.000000
vt -4.980268 0.443768 0.000000
vt -4.991205 -0.296436 0.000000
vt -4.892730 -1.030142 0.000000
vt -4.687002 -1.741267 0.000000
vt -4.378531 -2.414221 0.000000
vt -3.974079 -3.034254 0.000000
vt -3.482511 -3.587773 0.000000
vt -2.914604 -4.062645 0.000000
vt -2.282806 -4.448460 0.000000
vt -1.600967 -4.736761 0.000000
vt -0.884034 -4.921228 0.000000
vt -0.147721 -4.997817 0.000000
vt 0.591830 -4.964850 0.000000
vt 1.318407 -4.823049 0.000000
vt 2.016083 -4.575523 0.000000
vt 2.669566 -4.227697 0.000000
vt 3.264529 -3.787196 0.000000
vt 3.787930 -3.263676 0.000000
vt 4.228297 -2.668614 0.000000
vt 4.575976 -2.015054 0.000000
vt 4.823346 -1.317322 0.000000
vt 4.964983 -0.590712 0.000000
vt 4.997784 0.148846 0.000000
vt 4.921029 0.885141 0.000000
vt 4.736401 1.602033 0.000000
vt 4.447946 2.283807 0.000000
vt 4.061989 2.915518 0.000000
vt 3.586989 3.483319 0.000000
vt 3.033360 3.974762 0.000000
vt 2.413236 4.379074 0.000000
vt -2.413236 4.379074 0.000000
vt -3.033360 3.974762 0.000000
vt -0.000000 0.000000 0.000000
vt -3.586989 3.483319 0.000000
vt -4.061989 2.915518 0.000000
vt -4.447946 2.283807 0.000000
vt -4.736401 1.602033 0.000000
vt -4.921029 0.885141 0.000000
vt -4.997784 0.148846 0.000000
vt -4.964983 -0.590712 0.000000
vt -4.823346 -1.317322 0.000000
vt -4.575976 -2.015054 0.000000
vt -4.228297 -2.668614 0.000000
vt -3.787930 -3.263676 0.000000
vt -3.264529 -3.787196 0.000000
vt -2.669566 -4.227697 0.000000
vt -2.016083 -4.575523 0.000000
vt -1.318407 -4.823049 0.000000
vt -0.591830 -4.964850 0.000000
vt 0.147721 -4.997817 0.000000
vt 0.884034 -4.921228 0.000000
vt 1.600967 -4.736761 0.000000
vt 2.282806 -4.448460 0.000000
vt 2.914604 -4.062645 0.000000
vt 3.482511 -3.587773 0.000000
vt 3.974079 -3.034254 0.000000
vt 4.378531 -2.414221 0.000000
vt 4.687002 -1.741267 0.000000
vt 4.892730 -1.030142 0.000000
vt 4.991205 -0.296436 0.000000
vt 4.980268 0.443768 0.000000
vt 4.860159 1.174245 0.000000
vt 4.633512 1.878981 0.000000
vt 4.305294 2.542528 0.000000
vt 3.882700 3.150340 0.000000
vt 3.374993 3.689095 0.000000
vt 2.793304 4.146981 0.000000
vt 2.150384 4.513962 0.000000
vt 1.460324 4.781993 0.000000
vt 0.738254 4.945198 0.000000
vt -0.000000 5.000000 0.000000
vn 1.000000 0.000000 -0.000000
vn 1.000000 0.000000 -0.000000
vn 1.000000 0.000000 -0.000000
vn 1.000000 0.000000 -0.000000
vn -0.875815 0.482647 0.000000
vn -0.875815 0.482647 0.000000
vn -0.875815 0.482647 0.000000
vn -0.875815 0.482647 0.000000
vn 0.000000 1.000000 -0.000000
vn 0.000000 1.000000 -0.000000
vn -0.147651 0.989040 -0.000000
vn -0.147651 0.989040 -0.000000
vn -0.292065 0.956399 -0.000000
vn -0.292065 0.956399 -0.000000
vn -0.430077 0.902792 -0.000000
vn -0.430077 0.902792 -0.000000
vn -0.558661 0.829396 -0.000000
vn -0.558661 0.829396 -0.000000
vn -0.674999 0.737819 -0.000000
vn -0.674999 0.737819 -0.000000
vn -0.776540 0.630068 -0.000000
vn -0.776540 0.630068 -0.000000
vn -0.861059 0.508506 -0.000000
vn -0.861059 0.508506 -0.000000
vn -0.926702 0.375796 -0.000000
vn -0.926702 0.375796 -0.000000
vn -0.972032 0.234849 -0.000000
vn -0.972032 0.234849 -0.000000
vn -0.996054 0.088754 -0.000000
vn -0.996054 0.088754 -0.000000
vn -0.998241 -0.059287 0.000000
vn -0.998241 -0.059287 0.000000
vn -0.978546 -0.206028 0.000000
vn -0.978546 -0.206028 0.000000
vn -0.937400 -0.348253 0.000000
vn -0.937400 -0.348253 0.000000
vn -0.875706 -0.482844 0.000000
vn -0.875706 -0.482844 0.000000
vn -0.794816 -0.606851 0.000000
vn -0.794816 -0.606851 0.000000
vn -0.696502 -0.717555 0.000000
vn -0.696502 -0.717555 0.000000
vn -0.582921 -0.812529 0.000000
vn -0.582921 -0.812529 0.000000
vn -0.456561 -0.889692 0.000000
vn -0.456561 -0.889692 0.000000
vn -0.320193 -0.947352 0.000000
vn -0.320193 -0.947352 0.000000
vn -0.176807 -0.984246 0.000000
vn -0.176807 -0.984246 0.000000
vn -0.029544 -0.999563 0.000000
vn -0.029544 -0.999563 0.000000
vn 0.118366 -0.992970 -0.000000
vn 0.118366 -0.992970 -0.000000
vn 0.263681 -0.964610 -0.000000
vn 0.263681 -0.964610 -0.000000
vn 0.403217 -0.915105 -0.000000
vn 0.403217 -0.915105 -0.000000
vn 0.533913 -0.845539 -0.000000
vn 0.533913 -0.845539 -0.000000
vn 0.652906 -0.757439 -0.000000
vn 0.652906 -0.757439 -0.000000
vn 0.757586 -0.652735 -0.000000
vn 0.757586 -0.652735 -0.000000
vn 0.845659 -0.533723 -0.000000
vn 0.845659 -0.533723 -0.000000
vn 0.915195 -0.403011 -0.000000
vn 0.915195 -0.403011 -0.000000
vn 0.964669 -0.263464 -0.000000
vn 0.964669 -0.263464 -0.000000
vn 0.992997 -0.118142 -0.000000
vn 0.992997 -0.118142 -0.000000
vn 0.999557 0.029769 -0.000000
vn 0.999557 0.029769 -0.000000
vn 0.984206 0.177028 -0.000000
vn 0.984206 0.177028 -0.000000
vn 0.947280 0.320407 -0.000000
vn 0.947280 0.320407 -0.000000
vn 0.889589 0.456761 -0.000000
vn 0.889589 0.456761 -0.000000
vn 0.812398 0.583104 -0.000000
vn 0.812398 0.583104 -0.000000
vn 0.717398 0.696664 -0.000000
vn 0.717398 0.696664 -0.000000
vn 0.606672 0.794952 -0.000000
vn 0.606672 0.794952 -0.000000
vn 0.482647 0.875815 -0.000000
vn 0.482647 0.875815 -0.000000
vn 0.000000 0.000000 1.000000
vn 0.000000 0.000000 1.000000
vn 0.000000 0.000000 1.000000
vn 0.000000 0.000000 1.000000
vn 0.000000 0.000000 1.000000
vn 0.000000 0.000000 1.000000
vn 0.000000 0.000000 1.000000
vn 0.000000 0.000000 1.000000
vn 0.000000 0.000000 1.000000
vn 0.000000 0.000000 1.000000
vn 0.000000 0.000000 1.000000
vn 0.000000 0.000000 1.000000
vn 0.000000 0.000000 1.000000
vn 0.000000 0.000000 1.000000
vn 0.000000 0.000000 1.000000
vn 0.000000 0.000000 1.000000
vn 0.000000 0.000000 1.000000
vn 0.000000 0.000000 1.000000
vn 0.000000 0.000000 1.000000
vn 0.000000 0.000000 1.000000
vn 0.000000 0.000000 1.000000
vn 0.000000 0.000000 1.000000
vn 0.000000 0.000000 1.000000
vn 0.000000 0.000000 1.000000
vn 0.000000 0.000000 1.000000
vn 0.000000 0.000000 1.000000
vn 0.000000 0.000000 1.000000
vn 0.000000 0.000000 1.000000
vn 0.000000 0.000000 1.000000
vn 0.000000 0.000000 1.000000
vn 0.000000 0.000000 1.000000
vn 0.000000 0.000000 1.000000
vn 0.000000 0.000000 1.000000
vn 0.000000 0.000000 1.000000
vn 0.000000 0.000000 1.000000
vn 0.000000 0.000000 1.000000
vn 0.000000 0.000000 1.000000
vn 0.000000 0.000000 1.000000
vn 0.000000 0.000000 1.000000
vn 0.000000 0.000000 1.000000
vn 0.000000 0.000000 1.000000
vn -0.000000 -0.000000 -1.000000
vn -0.000000 -0.000000 -1.000000
vn -0.000000 -0.000000 -1.000000
vn -0.000000 -0.000000 -1.000000
vn -0.000000 -0.000000 -1.000000
vn -0.000000 -0.000000 -1.000000
vn -0.000000 -0.000000 -1.000000
vn -0.000000 -0.000000 -1.000000
vn -0.000000 -0.000000 -1.000000
vn -0.000000 -0.000000 -1.000000
vn -0.000000 -0.000000 -1.000000
vn -0.000000 -0.000000 -1.000000
vn -0.000000 -0.000000 -1.000000
vn -0.000000 -0.000000 -1.000000
vn -0.000000 -0.000000 -1.000000
vn -0.000000 -0.000000 -1.000000
vn -0.000000 -0.000000 -1.000000
vn -0.000000 -0.000000 -1.000000
vn -0.000000 -0.000000 -1.000000
vn -0.000000 -0.000000 -1.000000
vn -0.000000 -0.000000 -1.000000
vn -0.000000 -0.000000 -1.000000
vn -0.000000 -0.000000 -1.000000
vn -0.000000 -0.000000 -1.000000
vn -0.000000 -0.000000 -1.000000
vn -0.000000 -0.000000 -1.000000
vn -0.000000 -0.000000 -1.000000
vn -0.000000 -0.000000 -1.000000
vn -0.000000 -0.000000 -1.000000
vn -0.000000 -0.000000 -1.000000
vn -0.000000 -0.000000 -1.000000
vn -0.000000 -0.000000 -1.000000
vn -0.000000 -0.000000 -1.000000
vn -0.000000 -0.000000 -1.000000
vn -0.000000 -0.000000 -1.000000
vn -0.000000 -0.000000 -1.000000
vn -0.000000 -0.000000 -1.000000
vn -0.000000 -0.000000 -1.000000
vn -0.000000 -0.000000 -1.000000
vn -0.000000 -0.000000 -1.000000
vn -0.000000 -0.000000 -1.000000
usemtl Steel_-_Satin
f 1/1/1 2/2/2 4/3/3
f 4/3/3 2/2/2 3/4/4
f 5/5/5 1/6/6 6/7/7
f 6/7/7 1/6/6 4/8/8
f 3/9/9 2/10/10 82/11/11
f 82/11/11 2/10/10 7/12/12
f 82/11/11 7/12/12 81/13/13
f 81/13/13 7/12/12 8/14/14
f 81/13/13 8/14/14 80/15/15
f 80/15/15 8/14/14 9/16/16
f 80/15/15 9/16/16 79/17/17
f 79/17/17 9/16/16 10/18/18
f 79/17/17 10/18/18 78/19/19
f 78/19/19 10/18/18 11/20/20
f 78/19/19 11/20/20 77/21/21
f 77/21/21 11/20/20 12/22/22
f 77/21/21 12/22/22 76/23/23
f 76/23/23 12/22/22 13/24/24
f 76/23/23 13/24/24 75/25/25
f 75/25/25 13/24/24 14/26/26
f 75/25/25 14/26/26 74/27/27
f 74/27/27 14/26/26 15/28/28
f 74/27/27 15/28/28 73/29/29
f 73/29/29 15/28/28 16/30/30
f 73/29/29 16/30/30 72/31/31
f 72/31/31 16/30/30 17/32/32
f 72/31/31 17/32/32 71/33/33
f 71/33/33 17/32/32 18/34/34
f 71/33/33 18/34/34 70/35/35
f 70/35/35 18/34/34 19/36/36
f 70/35/35 19/36/36 69/37/37
f 69/37/37 19/36/36 20/38/38
f 69/37/37 20/38/38 68/39/39
f 68/39/39 20/38/38 21/40/40
f 68/39/39 21/40/40 67/41/41
f 67/41/41 21/40/40 22/42/42
f 67/41/41 22/42/42 66/43/43
f 66/43/43 22/42/42 23/44/44
f 66/43/43 23/44/44 65/45/45
f 65/45/45 23/44/44 24/46/46
f 65/45/45 24/46/46 64/47/47
f 64/47/47 24/46/46 25/48/48
f 64/47/47 25/48/48 63/49/49
f 63/49/49 25/48/48 26/50/50
f 63/49/49 26/50/50 62/51/51
f 62/51/51 26/50/50 27/52/52
f 62/51/51 27/52/52 61/53/53
f 61/53/53 27/52/52 28/54/54
f 61/53/53 28/54/54 60/55/55
f 60/55/55 28/54/54 29/56/56
f 60/55/55 29/56/56 59/57/57
f 59/57/57 29/56/56 30/58/58
f 59/57/57 30/58/58 58/59/59
f 58/59/59 30/58/58 31/60/60
f 58/59/59 31/60/60 57/61/61
f 57/61/61 31/60/60 32/62/62
f 57/61/61 32/62/62 56/63/63
f 56/63/63 32/62/62 33/64/64
f 56/63/63 33/64/64 55/65/65
f 55/65/65 33/64/64 34/66/66
f 55/65/65 34/66/66 54/67/67
f 54/67/67 34/66/66 35/68/68
f 54/67/67 35/68/68 53/69/69
f 53/69/69 35/68/68 36/70/70
f 53/69/69 36/70/70 52/71/71
f 52/71/71 36/70/70 37/72/72
f 52/71/71 37/72/72 51/73/73
f 51/73/73 37/72/72 38/74/74
f 51/73/73 38/74/74 50/75/75
f 50/75/75 38/74/74 39/76/76
f 50/75/75 39/76/76 49/77/77
f 49/77/77 39/76/76 40/78/78
f 49/77/77 40/78/78 48/79/79
f 48/79/79 40/78/78 41/80/80
f 48/79/79 41/80/80 47/81/81
f 47/81/81 41/80/80 42/82/82
f 47/81/81 42/82/82 46/83/83
f 46/83/83 42/82/82 43/84/84
f 46/83/83 43/84/84 45/85/85
f 45/85/85 43/84/84 44/86/86
f 45/85/85 44/86/86 6/87/87
f 6/87/87 44/86/86 5/88/88
f 3/89/89 82/90/90 4/91/91
f 4/91/91 82/90/90 81/92/92
f 4/91/91 81/92/92 80/93/93
f 80/93/93 79/94/94 4/91/91
f 4/91/91 79/94/94 78/95/95
f 4/91/91 78/95/95 77/96/96
f 77/96/96 76/97/97 4/91/91
f 4/91/91 76/97/97 75/98/98
f 4/91/91 75/98/98 74/99/99
f 74/99/99 73/100/100 4/91/91
f 4/91/91 73/100/100 72/101/101
f 4/91/91 72/101/101 71/102/102
f 71/102/102 70/103/103 4/91/91
f 4/91/91 70/103/103 69/104/104
f 4/91/91 69/104/104 68/105/105
f 68/105/105 67/106/106 4/91/91
f 4/91/91 67/106/106 66/107/107
f 4/91/91 66/107/107 65/108/108
f 65/108/108 64/109/109 4/91/91
f 4/91/91 64/109/109 63/110/110
f 4/91/91 63/110/110 62/111/111
f 62/111/111 61/112/112 4/91/91
f 4/91/91 61/112/112 60/113/113
f 4/91/91 60/113/113 59/114/114
f 59/114/114 58/115/115 4/91/91
f 4/91/91 58/115/115 57/116/116
f 4/91/91 57/116/116 56/117/117
f 56/117/117 55/118/118 4/91/91
f 4/91/91 55/118/118 54/119/119
f 4/91/91 54/119/119 53/120/120
f 53/120/120 52/121/121 4/91/91
f 4/91/91 52/121/121 51/122/122
f 4/91/91 51/122/122 50/123/123
f 50/123/123 49/124/124 4/91/91
f 4/91/91 49/124/124 48/125/125
f 4/91/91 48/125/125 47/126/126
f 47/126/126 46/127/127 4/91/91
f 4/91/91 46/127/127 45/128/128
f 4/91/91 45/128/128 6/129/129
f 5/130/130 44/131/131 1/132/132
f 1/132/132 44/131/131 43/133/133
f 1/132/132 43/133/133 42/134/134
f 42/134/134 41/135/135 1/132/132
f 1/132/132 41/135/135 40/136/136
f 1/132/132 40/136/136 39/137/137
f 39/137/137 38/138/138 1/132/132
f 1/132/132 38/138/138 37/139/139
f 1/132/132 37/139/139 36/140/140
f 36/140/140 35/141/141 1/132/132
f 1/132/132 35/141/141 34/142/142
f 1/132/132 34/142/142 33/143/143
f 33/143/143 32/144/144 1/132/132
f 1/132/132 32/144/144 31/145/145
f 1/132/132 31/145/145 30/146/146
f 30/146/146 29/147/147 1/132/132
f 1/132/132 29/147/147 28/148/148
f 1/132/132 28/148/148 27/149/149
f 27/149/149 26/150/150 1/132/132
f 1/132/132 26/150/150 25/151/151
f 1/132/132 25/151/151 24/152/152
f 24/152/152 23/153/153 1/132/132
f 1/132/132 23/153/153 22/154/154
f 1/132/132 22/154/154 21/155/155
f 21/155/155 20/156/156 1/132/132
f 1/132/132 20/156/156 19/157/157
f 1/132/132 19/157/157 18/158/158
f 18/158/158 17/159/159 1/132/132
f 1/132/132 17/159/159 16/160/160
f 1/132/132 16/160/160 15/161/161
f 15/161/161 14/162/162 1/132/132
f 1/132/132 14/162/162 13/163/163
f 1/132/132 13/163/163 12/164/164
f 12/164/164 11/165/165 1/132/132
f 1/132/132 11/165/165 10/166/166
f 1/132/132 10/166/166 9/167/167
f 9/167/167 8/168/168 1/132/132
f 1/132/132 8/168/168 7/169/169
f 1/132/132 7/169/169 2/170/170
# 82 vertices
# 170 texture params
# 170 normals
# 160 facets

# 1 groups
